# xmcd
#
# Track frame offsets:
#	150
#	15683
#	31467
#	45493
#	62912
#	76469
#	94250
#	110551
#	127231
#	141979
#
# Disc length: 2246 seconds
#
# Revision: 1
# Processed by: cddbd v1.5.2PL0 Copyright (c) Steve Scherf et al.
# Submitted via: audiograbber 1.83.01
#
DISCID=8e08c40a
DTITLE=Steve Strongmen - No more like now
DYEAR=1900
DGENRE=
TTITLE0=No time like now
TTITLE1=Bring the hammer down
TTITLE2=Money in the bank
TTITLE3=You ain't seen nothing yet
TTITLE4=Love love love
TTITLE5=I'm a men
TTITLE6=Old school
TTITLE7=Good time
TTITLE8=Sometimes
TTITLE9=The day they carry me away
EXTD=
EXTT0=
EXTT1=
EXTT2=
EXTT3=
EXTT4=
EXTT5=
EXTT6=
EXTT7=
EXTT8=
EXTT9=
PLAYORDER=
